<svg width="18" height="15" viewBox="0 0 18 15" fill="none" xmlns="http://www.w3.org/2000/svg">
<path d="M17.3571 11.52H0.642857C0.472361 11.52 0.308848 11.5959 0.188288 11.7309C0.0677294 11.8659 0 12.049 0 12.24L0 13.68C0 13.871 0.0677294 14.0541 0.188288 14.1891C0.308848 14.3241 0.472361 14.4 0.642857 14.4H17.3571C17.5276 14.4 17.6912 14.3241 17.8117 14.1891C17.9323 14.0541 18 13.871 18 13.68V12.24C18 12.049 17.9323 11.8659 17.8117 11.7309C17.6912 11.5959 17.5276 11.52 17.3571 11.52ZM17.3571 5.76H0.642857C0.472361 5.76 0.308848 5.83586 0.188288 5.97088C0.0677294 6.10591 0 6.28904 0 6.48L0 7.92C0 8.11096 0.0677294 8.29409 0.188288 8.42912C0.308848 8.56414 0.472361 8.64 0.642857 8.64H17.3571C17.5276 8.64 17.6912 8.56414 17.8117 8.42912C17.9323 8.29409 18 8.11096 18 7.92V6.48C18 6.28904 17.9323 6.10591 17.8117 5.97088C17.6912 5.83586 17.5276 5.76 17.3571 5.76ZM17.3571 0H0.642857C0.472361 0 0.308848 0.0758569 0.188288 0.210883C0.0677294 0.345909 0 0.529044 0 0.72L0 2.16C0 2.35096 0.0677294 2.53409 0.188288 2.66912C0.308848 2.80414 0.472361 2.88 0.642857 2.88H17.3571C17.5276 2.88 17.6912 2.80414 17.8117 2.66912C17.9323 2.53409 18 2.35096 18 2.16V0.72C18 0.529044 17.9323 0.345909 17.8117 0.210883C17.6912 0.0758569 17.5276 0 17.3571 0Z" fill="#404040"/>
</svg>
