<svg width="41" height="44" viewBox="0 0 41 44" fill="none" xmlns="http://www.w3.org/2000/svg">
<path d="M27.2399 4.9449C21.0816 -1.6483 11.0586 -1.6483 4.90026 4.9449C-1.25671 11.5395 -1.25671 22.269 4.90026 28.8637C10.3844 34.7336 18.9256 35.3625 25.0799 30.7789C25.2094 31.4349 25.5058 32.0609 25.9824 32.5712L34.9508 42.173C36.2578 43.5694 38.3697 43.5694 39.67 42.173C40.9756 40.7751 40.9756 38.514 39.67 37.1205L30.7016 27.5159C30.2277 27.0099 29.6416 26.6912 29.0288 26.5525C33.3128 19.9622 32.7254 10.8192 27.2399 4.9449ZM24.4084 25.8322C19.8107 30.7546 12.3281 30.7546 7.73177 25.8322C3.13674 20.9098 3.13674 12.9002 7.73177 7.9778C12.3281 3.05684 19.8107 3.05684 24.4084 7.9778C29.0061 12.9002 29.0061 20.9098 24.4084 25.8322Z" fill="black"/>
</svg>
